# xmcd
#
# Track frame offsets:
#	150
#	13148
#	28899
#	44637
#	62666
#	86151
#	104036
#	118879
#	132852
#	149535
#	164815
#	179155
#	193554
#	210264
#	226337
#	242052
#	257566
#
# Disc length: 3615 seconds
#
# Revision: 1
# Processed by: cddbd v1.5.2PL0 Copyright (c) Steve Scherf et al.
# Submitted via: audiograbber 1.83.01
#
DISCID=080e1d11
DTITLE=Various Artist - Die besten Country-Songs in Deutschland
DYEAR=2008
DGENRE=Country
TTITLE0=Martina McBride - I Love You
TTITLE1=Kenny Chesney - No Shoes, No Shirt, No Problems
TTITLE2=Kathy Mattea - Walking Away A Winner
TTITLE3=Lonestar - Amazed
TTITLE4=Martina McBride - Love's The Only House
TTITLE5=Wynonna - No One Else On Earth
TTITLE6=Billy Ray Cyrus - Burn Down The Trailer Park
TTITLE7=Reba McEntire - I'm A Survivor
TTITLE8=Gretchen Wilson - Redneck Woman
TTITLE9=James Bonamy - The Swing
TTITLE10=Teresa Brave - New Girls (Cady's Song)
TTITLE11=Mindy McCready - Guys Do It All The Time
TTITLE12=The Wilkinsons - Closets
TTITLE13=The Kinleys - Just Between You And Me
TTITLE14=Linda Davis - Some Things Are Meant To Be
TTITLE15=Lari White - That's My Baby
TTITLE16=Sara Evans - Cupid
EXTD=
EXTT0=
EXTT1=
EXTT2=
EXTT3=
EXTT4=
EXTT5=
EXTT6=
EXTT7=
EXTT8=
EXTT9=
EXTT10=
EXTT11=
EXTT12=
EXTT13=
EXTT14=
EXTT15=
EXTT16=
PLAYORDER=
